<svg width="902" height="874" viewBox="0 0 902 874" fill="none" xmlns="http://www.w3.org/2000/svg">
<g opacity="0.3">
<path opacity="0.3" d="M901.401 830.076V817.077L897.834 815.075C896.819 821.197 889.598 825.259 883.536 826.101L842.441 850.154L824.519 856.625L767.241 827.058L768.575 826.304C763.674 824.012 761.034 818.789 758.395 814.001L754.538 816.294L752.247 816.961V830.279C752.399 831.793 752.945 833.241 753.83 834.478C754.715 835.715 755.91 836.698 757.293 837.33L814.745 870.465C818.524 872.368 822.695 873.36 826.926 873.36C831.156 873.36 835.328 872.368 839.106 870.465L896.471 837.33C897.83 836.707 899.005 835.744 899.884 834.535C900.763 833.325 901.315 831.909 901.488 830.424C901.503 830.308 901.503 830.192 901.488 830.076H901.401Z" fill="url(#paint0_linear_570_5539)"/>
<path opacity="0.3" d="M883.534 826.101L842.439 850.155L826.836 855.784V873.367C831.077 873.454 835.27 872.455 839.017 870.465L896.382 837.33C897.74 836.707 898.916 835.744 899.794 834.535C900.673 833.325 901.226 831.91 901.399 830.424C901.413 830.309 901.413 830.192 901.399 830.076V817.077L898.122 815.249H897.774C896.671 821.284 889.537 825.143 883.534 826.101Z" fill="#0F054C"/>
<path opacity="0.3" d="M814.745 857.234L757.38 824.099C750.652 820.24 750.652 813.915 757.38 810.026L814.745 776.891C818.524 774.988 822.695 773.996 826.926 773.996C831.156 773.996 835.328 774.988 839.106 776.891L896.471 810.026C903.171 813.915 903.171 820.24 896.471 824.099L839.106 857.234C835.332 859.151 831.159 860.15 826.926 860.15C822.693 860.15 818.52 859.151 814.745 857.234Z" fill="url(#paint1_linear_570_5539)"/>
<g opacity="0.3">
<path opacity="0.3" d="M814.747 857.234L757.382 824.099C750.653 820.24 750.653 813.915 757.382 810.026L814.747 776.891C818.525 774.988 822.697 773.996 826.927 773.996C831.158 773.996 835.329 774.988 839.108 776.891L896.473 810.026C903.172 813.915 903.172 820.24 896.473 824.099L839.108 857.234C835.333 859.151 831.16 860.15 826.927 860.15C822.694 860.15 818.521 859.151 814.747 857.234Z" fill="#0F054C"/>
</g>
</g>
<path d="M826.837 815.365C823.071 815.433 819.349 814.545 816.02 812.783L758.655 779.647C757.3 779.171 756.126 778.286 755.296 777.114C754.466 775.942 754.02 774.541 754.02 773.104C754.02 771.668 754.466 770.267 755.296 769.095C756.126 767.923 757.3 767.037 758.655 766.561L816.02 733.426C819.371 731.737 823.07 730.858 826.823 730.858C830.575 730.858 834.275 731.737 837.626 733.426L895.02 766.561C896.374 767.037 897.548 767.923 898.378 769.095C899.208 770.267 899.654 771.668 899.654 773.104C899.654 774.541 899.208 775.942 898.378 777.114C897.548 778.286 896.374 779.171 895.02 779.647L837.655 812.783C834.325 814.545 830.603 815.433 826.837 815.365ZM826.837 731.859C823.245 731.787 819.693 732.625 816.513 734.297L759.148 767.432C757.957 767.828 756.92 768.589 756.186 769.607C755.452 770.625 755.057 771.849 755.057 773.104C755.057 774.36 755.452 775.584 756.186 776.602C756.92 777.62 757.957 778.381 759.148 778.777L816.513 811.912C819.709 813.529 823.241 814.371 826.823 814.371C830.404 814.371 833.936 813.529 837.133 811.912L894.498 778.719C895.689 778.323 896.725 777.562 897.459 776.544C898.194 775.526 898.589 774.302 898.589 773.046C898.589 771.791 898.194 770.567 897.459 769.549C896.725 768.531 895.689 767.77 894.498 767.374L837.133 734.238C833.956 732.591 830.414 731.773 826.837 731.859Z" fill="#42E8E0"/>
<path opacity="0.4" d="M901.401 760.381V740.738L897.834 738.736C896.819 744.887 889.597 748.92 883.536 749.762L842.441 773.815L824.518 780.286L767.24 750.719L768.574 749.965C763.673 747.672 761.034 742.45 758.395 737.662L754.538 739.954L752.247 740.622V760.584C752.398 762.098 752.944 763.546 753.83 764.783C754.715 766.02 755.909 767.003 757.293 767.635L814.745 800.77C818.519 802.687 822.692 803.686 826.925 803.686C831.158 803.686 835.331 802.687 839.106 800.77L896.471 767.635C897.829 767.012 899.005 766.049 899.884 764.84C900.762 763.63 901.315 762.215 901.488 760.729C901.502 760.614 901.502 760.497 901.488 760.381H901.401Z" fill="#42E8E0"/>
<path d="M901.401 742.914V729.915L897.834 727.913C896.819 734.064 889.597 738.098 883.536 738.939L842.441 762.993L824.518 769.463L767.24 739.896L768.574 739.142C763.673 736.85 761.034 731.627 758.395 726.84L754.538 729.161L752.247 729.799V743.117C752.398 744.631 752.944 746.079 753.83 747.316C754.715 748.553 755.909 749.536 757.293 750.168L814.745 783.303C818.519 785.22 822.692 786.219 826.925 786.219C831.158 786.219 835.331 785.22 839.106 783.303L896.471 750.168C897.829 749.545 899.005 748.582 899.884 747.373C900.762 746.163 901.315 744.748 901.488 743.262C901.502 743.147 901.502 743.03 901.488 742.914H901.401Z" fill="url(#paint2_linear_570_5539)"/>
<path opacity="0.3" d="M883.536 738.938L842.441 762.992L826.838 768.621V786.204C831.079 786.291 835.272 785.293 839.019 783.302L896.383 750.167C897.742 749.544 898.918 748.581 899.796 747.372C900.675 746.162 901.228 744.747 901.401 743.261C901.415 743.146 901.415 743.029 901.401 742.913V729.914L898.123 728.086H897.775C896.673 734.122 889.539 738.097 883.536 738.938Z" fill="#0F054C"/>
<path d="M814.747 770.013L757.382 736.878C750.653 732.99 750.653 726.664 757.382 722.805L814.747 689.757C818.521 687.84 822.694 686.842 826.927 686.842C831.16 686.842 835.333 687.84 839.108 689.757L896.473 722.892C903.172 726.751 903.172 733.077 896.473 736.965L839.021 770.013C835.254 771.902 831.098 772.886 826.884 772.886C822.67 772.886 818.514 771.902 814.747 770.013Z" fill="url(#paint3_linear_570_5539)"/>
<path d="M896.383 736.966L839.018 770.014C835.24 771.918 831.068 772.909 826.838 772.909C822.607 772.909 818.436 771.918 814.657 770.014L757.292 736.879C756.04 736.288 754.94 735.419 754.076 734.338C753.211 733.257 752.605 731.992 752.304 730.641C751.898 733.542 753.58 736.444 757.292 738.475L814.744 771.697C818.519 773.614 822.692 774.613 826.925 774.613C831.158 774.613 835.331 773.614 839.105 771.697L896.47 738.562C898.002 737.925 899.3 736.831 900.188 735.429C901.075 734.027 901.509 732.385 901.429 730.728C901.12 732.084 900.505 733.351 899.63 734.433C898.755 735.514 897.645 736.381 896.383 736.966Z" fill="white"/>
<path d="M798.031 728.365L667.546 650.279L626.061 674.213H625.579L544.78 626.588L545.262 625.379L626.061 672.762L667.546 648.829L668.511 649.312L798.513 727.156L798.031 728.365Z" fill="url(#paint4_linear_570_5539)"/>
<g opacity="0.3">
<path opacity="0.3" d="M149.254 828.67V815.671L145.656 813.669C144.641 819.82 137.416 823.853 131.381 824.694L90.2374 848.748L72.3059 855.218L15.0008 825.652L16.3356 824.898C11.432 822.605 8.7916 817.383 6.15121 812.595L2.29223 814.916L0 815.555V828.873C0.151882 830.387 0.697919 831.834 1.58376 833.071C2.4696 834.309 3.66427 835.292 5.04862 835.923L62.4407 869.059C66.2171 870.975 70.3923 871.974 74.6272 871.974C78.8621 871.974 83.0372 870.975 86.8135 869.059L144.206 835.923C145.57 835.304 146.752 834.343 147.637 833.133C148.521 831.924 149.078 830.506 149.254 829.018C149.254 829.018 149.254 828.786 149.254 828.67Z" fill="url(#paint5_linear_570_5539)"/>
<path opacity="0.3" d="M131.381 824.752L90.2372 848.805L74.627 854.434V872.017C78.87 872.105 83.0649 871.106 86.8133 869.116L144.205 835.98C145.57 835.361 146.752 834.4 147.637 833.191C148.521 831.981 149.078 830.563 149.254 829.075C149.254 829.075 149.254 828.843 149.254 828.727V815.728L145.946 813.9H145.598C144.496 819.877 137.358 823.852 131.381 824.752Z" fill="#0F054C"/>
<path opacity="0.3" d="M62.4408 855.856L5.04865 822.721C-1.68288 818.833 -1.68288 812.508 5.04865 808.649L62.4408 775.426C66.2171 773.51 70.3923 772.511 74.6272 772.511C78.8621 772.511 83.0372 773.51 86.8136 775.426L144.206 808.562C150.908 812.421 150.908 818.746 144.206 822.634L86.8136 855.856C83.0332 857.76 78.8596 858.751 74.6272 858.751C70.3948 858.751 66.2211 857.76 62.4408 855.856Z" fill="url(#paint6_linear_570_5539)"/>
<g opacity="0.3">
<path opacity="0.3" d="M62.4408 855.856L5.04865 822.721C-1.68288 818.833 -1.68288 812.508 5.04865 808.649L62.4408 775.426C66.2171 773.509 70.3923 772.511 74.6272 772.511C78.8621 772.511 83.0372 773.509 86.8136 775.426L144.206 808.562C150.908 812.421 150.908 818.746 144.206 822.634L86.8136 855.856C83.0332 857.76 78.8596 858.751 74.6272 858.751C70.3948 858.751 66.2211 857.76 62.4408 855.856Z" fill="#0F054C"/>
</g>
</g>
<path d="M74.6268 807.634C70.8574 807.716 67.1302 806.827 63.8041 805.051L6.41197 771.916C5.06654 771.434 3.90291 770.548 3.0802 769.379C2.25749 768.211 1.81592 766.817 1.81592 765.387C1.81592 763.958 2.25749 762.564 3.0802 761.395C3.90291 760.227 5.06654 759.341 6.41197 758.859L63.8041 725.724C67.1577 724.021 70.8658 723.134 74.6268 723.134C78.3879 723.134 82.0958 724.021 85.4494 725.724L142.842 758.859C144.187 759.341 145.351 760.227 146.173 761.395C146.996 762.564 147.438 763.958 147.438 765.387C147.438 766.817 146.996 768.211 146.173 769.379C145.351 770.548 144.187 771.434 142.842 771.916L85.4494 805.051C82.1233 806.827 78.3962 807.716 74.6268 807.634ZM64.2974 804.181C67.4955 805.797 71.0288 806.64 74.6123 806.64C78.1958 806.64 81.7291 805.797 84.9272 804.181L142.319 771.045C143.601 770.753 144.746 770.034 145.566 769.006C146.386 767.978 146.833 766.702 146.833 765.387C146.833 764.072 146.386 762.796 145.566 761.768C144.746 760.74 143.601 760.022 142.319 759.729L84.9272 726.594C81.7332 724.964 78.1983 724.114 74.6123 724.114C71.0263 724.114 67.4914 724.964 64.2974 726.594L6.90527 759.729C5.62319 760.022 4.47835 760.74 3.65832 761.768C2.83829 762.796 2.39165 764.072 2.39165 765.387C2.39165 766.702 2.83829 767.978 3.65832 769.006C4.47835 770.034 5.62319 770.753 6.90527 771.045L64.2974 804.181Z" fill="#42E8E0"/>
<path opacity="0.4" d="M149.254 752.679V733.006L145.656 731.004C144.641 737.155 137.416 741.189 131.381 742.03L90.2374 766.084L72.3059 772.525L15.0008 742.958L16.3356 742.204C11.432 739.912 8.7916 734.689 6.15121 729.902L2.29223 732.223L0 732.861V752.853C0.139357 754.367 0.680879 755.816 1.56853 757.051C2.45618 758.285 3.65767 759.26 5.04862 759.874L62.4407 793.01C66.2171 794.926 70.3923 795.925 74.6272 795.925C78.8621 795.925 83.0372 794.926 86.8135 793.01L144.206 759.874C145.57 759.255 146.752 758.294 147.637 757.085C148.521 755.875 149.078 754.457 149.254 752.969C149.254 752.969 149.254 752.737 149.254 752.621V752.679Z" fill="#42E8E0"/>
<path d="M149.254 735.182V722.184L145.656 720.182C144.641 726.333 137.416 730.366 131.381 731.207L90.2374 755.261L72.3059 761.731L15.0008 732.165L16.3356 731.41C11.432 729.118 8.7916 723.896 6.15121 719.137L2.29223 721.429L0 722.068V735.415C0.156725 736.923 0.705012 738.365 1.59058 739.597C2.47614 740.828 3.66821 741.807 5.04862 742.436L62.4407 775.572C66.2171 777.488 70.3923 778.487 74.6272 778.487C78.8621 778.487 83.0372 777.488 86.8135 775.572L144.206 742.436C145.57 741.817 146.752 740.856 147.637 739.646C148.521 738.437 149.078 737.019 149.254 735.531C149.254 735.531 149.254 735.299 149.254 735.182Z" fill="url(#paint7_linear_570_5539)"/>
<path d="M62.4408 762.369L5.04865 729.234C-1.68288 725.346 -1.68288 719.021 5.04865 715.162L62.4408 682.026C66.2171 680.11 70.3923 679.111 74.6272 679.111C78.8621 679.111 83.0372 680.11 86.8136 682.026L144.206 715.162C150.908 719.05 150.908 725.346 144.206 729.234L86.8136 762.369C83.0372 764.286 78.8621 765.285 74.6272 765.285C70.3923 765.285 66.2171 764.286 62.4408 762.369Z" fill="url(#paint8_linear_570_5539)"/>
<path d="M74.6289 756.334C71.2245 756.41 67.8575 755.611 64.8508 754.013L20.0222 728.131C18.7964 727.696 17.7354 726.892 16.9851 725.829C16.2348 724.767 15.832 723.498 15.832 722.197C15.832 720.897 16.2348 719.628 16.9851 718.565C17.7354 717.503 18.7964 716.699 20.0222 716.264L64.8508 690.382C67.879 688.838 71.2298 688.034 74.6289 688.034C78.028 688.034 81.3787 688.838 84.407 690.382L129.236 716.264C130.461 716.699 131.522 717.503 132.273 718.565C133.023 719.628 133.426 720.897 133.426 722.197C133.426 723.498 133.023 724.767 132.273 725.829C131.522 726.892 130.461 727.696 129.236 728.131L84.407 754.013C81.4003 755.611 78.0333 756.41 74.6289 756.334ZM65.344 753.142C68.216 754.602 71.3924 755.363 74.6143 755.363C77.8363 755.363 81.0127 754.602 83.8847 753.142L128.742 727.26C129.819 726.92 130.759 726.246 131.426 725.336C132.093 724.425 132.453 723.326 132.453 722.197C132.453 721.069 132.093 719.969 131.426 719.059C130.759 718.148 129.819 717.474 128.742 717.134L83.8847 691.282C81.0127 689.821 77.8363 689.06 74.6143 689.06C71.3924 689.06 68.216 689.821 65.344 691.282L20.5155 717.163C19.508 717.601 18.6354 718.3 17.9877 719.187C17.34 720.075 16.9405 721.119 16.8305 722.212C16.9444 723.307 17.345 724.354 17.9919 725.245C18.6388 726.136 19.5093 726.842 20.5155 727.29L65.344 753.142Z" fill="#5351AF"/>
<path d="M144.203 729.235L86.8109 762.37C83.0345 764.287 78.8594 765.286 74.6245 765.286C70.3896 765.286 66.2144 764.287 62.4381 762.37L5.04596 729.235C3.79359 728.644 2.69285 727.775 1.82788 726.694C0.962906 725.613 0.356599 724.348 0.0553367 722.996C-0.011008 724.659 0.431144 726.302 1.3228 727.707C2.21447 729.112 3.51325 730.212 5.04596 730.86L62.4381 763.995C66.2184 765.898 70.3921 766.889 74.6245 766.889C78.8569 766.889 83.0305 765.898 86.8109 763.995L144.203 730.86C145.735 730.214 147.033 729.114 147.92 727.708C148.807 726.302 149.242 724.657 149.165 722.996C148.868 724.346 148.267 725.61 147.407 726.691C146.547 727.772 145.451 728.642 144.203 729.235Z" fill="white"/>
<path d="M81.6548 751.412L211.7 676.585L253.318 699.039L253.801 699.036L334.332 653.391L333.843 652.248L253.31 697.663L211.692 675.209L210.73 675.674L81.1657 750.268L81.6548 751.412Z" fill="url(#paint9_linear_570_5539)"/>
<g opacity="0.3">
<path opacity="0.3" d="M899.864 302.832V289.834L896.27 287.832C895.255 293.954 888.037 298.016 882.008 298.857L840.904 322.882L822.99 329.381L765.74 299.815L767.073 299.031C762.174 296.768 759.537 291.516 756.899 286.758L753.043 289.05L750.753 289.688V303.036C750.89 304.551 751.43 306.001 752.317 307.236C753.204 308.471 754.406 309.446 755.797 310.057L813.134 343.193C816.907 345.109 821.078 346.108 825.309 346.108C829.54 346.108 833.711 345.109 837.484 343.193L894.82 310.057C896.184 309.438 897.365 308.477 898.248 307.267C899.132 306.058 899.688 304.64 899.864 303.152V302.832Z" fill="url(#paint10_linear_570_5539)"/>
<path opacity="0.3" d="M882.008 298.857L840.904 322.882L825.309 328.54V346.123C829.548 346.21 833.738 345.211 837.483 343.221L894.82 310.086C896.184 309.467 897.364 308.506 898.248 307.296C899.132 306.086 899.688 304.669 899.864 303.18V302.861V289.862L896.588 288.034H896.241C895.081 294.041 887.979 298.016 882.008 298.857Z" fill="#0F054C"/>
<path opacity="0.3" d="M813.135 329.99L755.943 296.855C749.218 292.967 749.218 286.67 755.943 282.782L813.135 249.531C816.908 247.614 821.079 246.615 825.31 246.615C829.541 246.615 833.712 247.614 837.485 249.531L894.821 282.666C901.546 286.554 901.546 292.851 894.821 296.739L837.485 329.874C833.721 331.809 829.555 332.828 825.324 332.848C821.093 332.868 816.917 331.889 813.135 329.99Z" fill="url(#paint11_linear_570_5539)"/>
<g opacity="0.3">
<path opacity="0.3" d="M813.136 329.99L755.944 296.855C749.219 292.967 749.219 286.67 755.944 282.782L813.136 249.531C816.908 247.614 821.079 246.615 825.31 246.615C829.541 246.615 833.712 247.614 837.485 249.531L894.822 282.666C901.547 286.554 901.547 292.851 894.822 296.739L837.485 329.874C833.721 331.809 829.555 332.828 825.324 332.848C821.093 332.868 816.918 331.889 813.136 329.99Z" fill="#0F054C"/>
</g>
</g>
<path d="M825.31 290.298C821.546 290.366 817.826 289.477 814.498 287.715L757.161 254.58C755.807 254.104 754.634 253.219 753.804 252.047C752.974 250.875 752.528 249.474 752.528 248.037C752.528 246.6 752.974 245.199 753.804 244.027C754.634 242.855 755.807 241.97 757.161 241.494L814.498 208.359C817.852 206.67 821.555 205.79 825.31 205.79C829.065 205.79 832.768 206.67 836.122 208.359L893.459 241.494C894.813 241.97 895.986 242.855 896.816 244.027C897.646 245.199 898.092 246.6 898.092 248.037C898.092 249.474 897.646 250.875 896.816 252.047C895.986 253.219 894.813 254.104 893.459 254.58L836.122 287.715C832.794 289.477 829.074 290.366 825.31 290.298ZM825.31 206.763C821.727 206.701 818.186 207.549 815.02 209.229L757.654 242.365C756.463 242.76 755.427 243.521 754.693 244.539C753.959 245.558 753.564 246.781 753.564 248.037C753.564 249.293 753.959 250.516 754.693 251.535C755.427 252.553 756.463 253.314 757.654 253.709L815.02 286.845C818.215 288.462 821.744 289.304 825.325 289.304C828.905 289.304 832.434 288.462 835.63 286.845L892.966 253.709C894.157 253.314 895.193 252.553 895.927 251.535C896.661 250.516 897.056 249.293 897.056 248.037C897.056 246.781 896.661 245.558 895.927 244.539C895.193 243.521 894.157 242.76 892.966 242.365L835.63 209.229C832.452 207.549 828.903 206.701 825.31 206.763Z" fill="#42E8E0"/>
<path opacity="0.4" d="M899.864 235.314V215.671L896.269 213.668C895.255 219.791 888.037 223.853 882.007 224.694L840.903 248.748L822.989 255.334L765.739 225.768L767.073 225.013C762.174 222.721 759.536 217.498 756.898 212.711L753.043 215.003L750.753 215.671V235.633C750.938 237.142 751.514 238.576 752.424 239.792C753.334 241.009 754.547 241.966 755.942 242.568L813.134 275.645C816.906 277.562 821.077 278.561 825.308 278.561C829.539 278.561 833.71 277.562 837.483 275.645L894.82 242.51C896.183 241.891 897.364 240.93 898.248 239.72C899.131 238.51 899.688 237.092 899.864 235.604V235.256V235.314Z" fill="#42E8E0"/>
<path d="M899.864 217.846V204.847L896.269 202.845C895.255 208.968 888.037 213.03 882.007 213.871L840.903 237.925L822.989 244.395L765.739 214.713L767.073 213.958C762.174 211.666 759.536 206.443 756.898 201.656L753.043 203.948L750.753 204.615V217.933C750.905 219.447 751.45 220.895 752.335 222.132C753.22 223.369 754.414 224.352 755.797 224.984L813.134 258.235C816.91 260.139 821.08 261.13 825.308 261.13C829.537 261.13 833.706 260.139 837.483 258.235L894.82 225.1C896.183 224.481 897.364 223.52 898.248 222.31C899.131 221.1 899.688 219.683 899.864 218.194V217.846Z" fill="url(#paint12_linear_570_5539)"/>
<path opacity="0.3" d="M882.007 213.872L840.903 237.926L825.308 243.555V261.138C829.547 261.225 833.738 260.226 837.483 258.236L894.82 225.101C896.183 224.482 897.364 223.521 898.248 222.311C899.131 221.101 899.688 219.684 899.863 218.195V217.847V204.848L896.588 203.02H896.24C895.081 209.056 887.979 213.031 882.007 213.872Z" fill="#0F054C"/>
<path d="M767.073 214.074L821.424 182.795C822.634 182.188 823.969 181.872 825.323 181.872C826.677 181.872 828.012 182.188 829.222 182.795L882.587 213.639L882.007 213.987C888.037 213.145 895.255 209.083 896.269 202.961L836.352 169.593L818.96 164.98L804.756 173.336L756.927 201.887C759.536 206.559 762.174 211.811 767.073 214.074Z" fill="url(#paint13_linear_570_5539)"/>
<path opacity="0.3" d="M825.308 166.576L818.93 164.864L804.727 173.221L756.897 201.772C759.535 206.559 762.173 211.782 767.072 214.074L821.423 182.796C822.611 182.14 823.951 181.81 825.308 181.838V166.576Z" fill="#0F054C"/>
<path d="M813.135 245.005L755.943 211.811C749.218 207.952 749.218 201.627 755.943 197.739L813.28 164.604C817.056 162.7 821.226 161.709 825.454 161.709C829.683 161.709 833.852 162.7 837.629 164.604L894.966 197.739C901.691 201.627 901.691 207.952 894.966 211.811L837.629 244.947C833.842 246.896 829.647 247.918 825.389 247.928C821.13 247.938 816.931 246.936 813.135 245.005ZM829.223 169.565C828.013 168.958 826.678 168.641 825.324 168.641C823.97 168.641 822.635 168.958 821.425 169.565L764.088 202.701C763.61 202.856 763.194 203.158 762.899 203.565C762.604 203.971 762.445 204.461 762.445 204.964C762.445 205.466 762.604 205.956 762.899 206.363C763.194 206.769 763.61 207.072 764.088 207.227L821.425 240.362C822.635 240.97 823.97 241.286 825.324 241.286C826.678 241.286 828.013 240.97 829.223 240.362L886.56 207.227C887.024 207.058 887.425 206.75 887.708 206.345C887.991 205.94 888.143 205.458 888.143 204.964C888.143 204.469 887.991 203.987 887.708 203.582C887.425 203.177 887.024 202.87 886.56 202.701L829.223 169.565Z" fill="url(#paint14_linear_570_5539)"/>
<path d="M886.557 202.584L829.22 169.449C828.01 168.841 826.675 168.525 825.321 168.525C823.968 168.525 822.633 168.841 821.423 169.449L764.086 202.584C762.636 203.426 762.173 204.586 762.636 205.66C762.963 205.041 763.468 204.536 764.086 204.209L821.423 171.19C822.633 170.582 823.968 170.266 825.321 170.266C826.675 170.266 828.01 170.582 829.22 171.19L886.557 204.325C887.167 204.652 887.663 205.158 887.978 205.776C888.441 204.586 887.978 203.426 886.557 202.584Z" fill="white"/>
<path d="M894.822 211.811L837.485 244.946C833.713 246.863 829.542 247.862 825.311 247.862C821.08 247.862 816.909 246.863 813.136 244.946L755.944 211.811C754.692 211.229 753.592 210.366 752.727 209.289C751.862 208.212 751.257 206.95 750.958 205.602C750.894 207.26 751.337 208.899 752.228 210.299C753.119 211.699 754.415 212.793 755.944 213.436L813.136 246.629C816.909 248.546 821.08 249.545 825.311 249.545C829.542 249.545 833.713 248.546 837.485 246.629L894.822 213.494C896.351 212.851 897.648 211.757 898.539 210.357C899.43 208.957 899.873 207.318 899.808 205.66C899.501 206.998 898.892 208.248 898.028 209.314C897.164 210.38 896.067 211.234 894.822 211.811Z" fill="white"/>
<path d="M814.756 244.076L757.419 210.941C751.621 207.575 751.621 202.236 757.419 198.755L814.756 165.619C818.023 163.948 821.639 163.077 825.307 163.077C828.976 163.077 832.592 163.948 835.859 165.619L893.195 198.755C898.993 202.12 898.993 207.459 893.195 210.941L835.859 244.076C832.592 245.747 828.976 246.618 825.307 246.618C821.639 246.618 818.023 245.747 814.756 244.076ZM830.815 168.637C829.11 167.763 827.222 167.308 825.307 167.308C823.392 167.308 821.504 167.763 819.8 168.637L762.463 201.656C761.794 201.88 761.213 202.309 760.801 202.881C760.389 203.454 760.168 204.142 760.168 204.848C760.168 205.553 760.389 206.241 760.801 206.814C761.213 207.387 761.794 207.815 762.463 208.039L819.713 241.175C821.422 242.033 823.308 242.479 825.22 242.479C827.132 242.479 829.018 242.033 830.728 241.175L888.094 208.039C888.762 207.815 889.343 207.387 889.755 206.814C890.167 206.241 890.389 205.553 890.389 204.848C890.389 204.142 890.167 203.454 889.755 202.881C889.343 202.309 888.762 201.88 888.094 201.656L830.815 168.637Z" fill="url(#paint15_linear_570_5539)"/>
<path opacity="0.4" d="M829.225 169.449C828.015 168.841 826.68 168.525 825.326 168.525C823.972 168.525 822.637 168.841 821.427 169.449L764.09 202.584C763.613 202.739 763.196 203.042 762.901 203.448C762.606 203.855 762.447 204.345 762.447 204.847C762.447 205.35 762.606 205.84 762.901 206.246C763.196 206.653 763.613 206.955 764.09 207.11L821.427 240.246C822.637 240.853 823.972 241.17 825.326 241.17C826.68 241.17 828.015 240.853 829.225 240.246L886.562 207.11C887.026 206.941 887.427 206.634 887.71 206.229C887.993 205.824 888.145 205.342 888.145 204.847C888.145 204.353 887.993 203.871 887.71 203.466C887.427 203.061 887.026 202.753 886.562 202.584L829.225 169.449Z" fill="#42E8E0"/>
<path d="M785.969 271.315L653.102 345.276L653.087 393.169L652.846 393.587L571.202 439.749L570.396 438.727L651.831 392.444L651.846 344.55L652.747 343.957L785.163 270.293L785.969 271.315Z" fill="url(#paint16_linear_570_5539)"/>
<path opacity="0.5" d="M703.027 481.043L725.509 494.057V546.019L703.027 533.029V481.043Z" fill="#758EF5"/>
<path opacity="0.2" d="M680.546 494.057L703.028 507.048V533.029L680.546 520.038V494.057Z" fill="#758EF5"/>
<path opacity="0.5" d="M658.063 403.077L680.545 416.091V520.039L658.063 507.048V403.077Z" fill="#758EF5"/>
<path opacity="0.2" d="M635.56 364.105L658.064 377.095V507.047L635.56 494.057V364.105Z" fill="#758EF5"/>
<path opacity="0.5" d="M613.079 377.096L635.56 390.086V494.057L613.079 481.043V377.096Z" fill="#758EF5"/>
<path opacity="0.2" d="M590.594 286.139L613.075 299.129V481.043L590.594 468.053V286.139Z" fill="#758EF5"/>
<path opacity="0.5" d="M568.115 299.13L590.597 312.12V468.053L568.115 455.063V299.13Z" fill="#758EF5"/>
<path opacity="0.2" d="M545.632 312.119L568.114 325.11V455.062L545.632 442.071V312.119Z" fill="#758EF5"/>
<path opacity="0.5" d="M523.128 247.144L545.633 260.158V442.072L523.128 429.081V247.144Z" fill="#758EF5"/>
<path opacity="0.2" d="M500.647 182.191L523.129 195.181V429.081L500.647 416.067V182.191Z" fill="#758EF5"/>
<path opacity="0.5" d="M478.165 195.182L500.646 208.173V416.068L478.165 403.077V195.182Z" fill="#758EF5"/>
<path opacity="0.2" d="M455.684 130.206L478.166 143.196V403.077L455.684 390.086V130.206Z" fill="#758EF5"/>
<path opacity="0.5" d="M433.176 117.215L455.681 130.206V390.086L433.176 377.096V117.215Z" fill="#758EF5"/>
<path opacity="0.2" d="M410.695 52.2393L433.176 65.2299V377.096L410.695 364.105V52.2393Z" fill="#758EF5"/>
<path opacity="0.4" d="M432.782 738.813C546.539 738.813 638.756 685.523 638.756 619.787C638.756 554.051 546.539 500.761 432.782 500.761C319.026 500.761 226.809 554.051 226.809 619.787C226.809 685.523 319.026 738.813 432.782 738.813Z" fill="#0F054C"/>
<path d="M432.781 691.49C562.256 691.49 667.217 630.836 667.217 556.017C667.217 481.197 562.256 420.544 432.781 420.544C303.306 420.544 198.346 481.197 198.346 556.017C198.346 630.836 303.306 691.49 432.781 691.49Z" fill="url(#paint17_linear_570_5539)"/>
<path opacity="0.48" d="M667.241 511.409H661.447C652.037 487.284 631.085 464.342 598.568 445.575C507.019 392.662 358.57 392.662 267.137 445.575C236.427 463.321 216.148 484.755 205.927 507.419H198.579V537.46C196.748 573.439 219.601 609.766 267.137 637.209C358.686 690.099 507.135 690.099 598.684 637.209C644.458 610.74 667.357 576.083 667.357 541.403L667.241 511.409Z" fill="url(#paint18_linear_570_5539)"/>
<path opacity="0.48" d="M661.449 499.763C661.125 498.928 660.777 498.093 660.406 497.258V477.517H648.123V476.102C644.913 471.792 641.429 467.693 637.693 463.831V477.517H630.74V457.034C627.48 454.065 623.988 451.157 620.264 448.312V477.563H613.311V443.115C609.95 440.796 606.358 438.476 602.788 436.295V477.447H595.835V432.213C592.405 430.279 588.89 428.424 585.29 426.645V477.447H578.337V423.421C574.86 421.874 571.337 420.328 567.768 418.781V477.447H560.815V430.009H550.223V477.517H543.27V443.115H532.632V477.587H525.678V456.152H515.017V477.587H508.203V469.212H497.611V477.587H368.144V469.212H357.437V477.587H350.623V456.152H340.008V477.587H333.055V443.115H322.416V477.587H315.463V430.009H304.871V477.517H297.918V418.804C294.349 420.258 290.826 421.805 287.349 423.444V477.587H280.396V426.668C276.804 428.455 273.281 430.287 269.851 432.213V477.517H262.898V436.295C259.236 438.491 255.728 440.757 252.375 443.092V477.517H245.422V448.196C241.691 451.026 238.214 453.949 234.946 456.918V477.517H227.993V463.599C224.271 467.465 220.788 471.555 217.564 475.847V477.401H205.28V495.611H200.065V545.973C202.098 555.376 205.611 564.396 210.471 572.696V541.31H217.564V583.46C220.775 587.754 224.259 591.837 227.993 595.685V541.31H234.946V602.505C238.214 605.451 241.714 608.374 245.422 611.204V541.31H252.375V616.307C255.744 618.627 259.251 620.9 262.898 623.127V541.31H269.851V627.14C273.281 629.042 276.796 630.891 280.396 632.684V541.31H287.349V636.025C290.826 637.571 294.349 639.118 297.918 640.664V541.379H304.871V643.448C308.348 644.77 311.824 646.023 315.463 647.229V541.31H322.416V649.271C325.939 650.361 329.369 651.382 333.055 652.356V541.31H340.008V654.212C343.531 655.07 347.077 655.905 350.669 656.671V541.379H357.483V658.086C361.029 658.782 364.598 659.408 368.191 660.011V541.31H374.982V660.985C378.528 661.519 382.12 661.983 385.713 662.424V541.31H392.457V663.166C396.026 663.514 399.619 663.815 403.234 664.094V541.31H409.933V664.535C413.548 664.72 417.141 664.882 420.756 664.998V541.31H427.431V665.138C431.078 665.138 434.716 665.138 438.348 665.138V541.31H445.023V664.998C448.638 664.998 452.231 664.72 455.846 664.535V541.31H462.544V664.094C466.16 663.815 469.752 663.514 473.322 663.143V541.31H480.066V662.4C483.659 661.983 487.251 661.496 490.797 660.985V541.31H497.611V659.918C501.204 659.338 504.773 658.689 508.319 657.993V541.31H515.133V656.531C518.725 655.743 522.271 654.931 525.794 654.049V541.31H532.747V652.333C536.317 651.358 539.863 650.314 543.386 649.247V541.31H550.339V647.02C553.908 645.837 557.454 644.701 560.931 643.262V541.31H567.884V640.548C571.453 639.087 574.976 637.579 578.452 635.909V541.31H585.406V632.684C589.006 630.891 592.521 629.042 595.951 627.14V541.31H602.904V623.081C606.566 620.854 610.074 618.573 613.427 616.238V541.31H620.38V611.134C624.088 608.273 627.58 605.366 630.856 602.412V541.31H637.809V595.615C641.55 591.758 645.034 587.658 648.238 583.344V541.31H655.215V572.603C660.114 564.231 663.628 555.12 665.621 545.625V499.787L661.449 499.763Z" fill="url(#paint19_linear_570_5539)"/>
<path d="M432.781 635.283C562.256 635.283 667.217 574.63 667.217 499.81C667.217 424.991 562.256 364.337 432.781 364.337C303.306 364.337 198.346 424.991 198.346 499.81C198.346 574.63 303.306 635.283 432.781 635.283Z" fill="url(#paint20_linear_570_5539)"/>
<path opacity="0.3" d="M432.876 364.244C379.755 364.244 326.633 374.613 283.385 395.329L213.437 547.503C224.84 565.018 242.663 581.418 267.022 595.499C282.742 604.458 299.339 611.78 316.551 617.351L432.876 364.244Z" fill="#91A2FA"/>
<path opacity="0.3" d="M498.557 369.765L378.222 631.571C407.301 635.523 436.723 636.301 465.97 633.891L576.733 392.893C551.765 381.88 525.494 374.108 498.557 369.765Z" fill="#91A2FA"/>
<g opacity="0.05">
<path opacity="0.05" d="M432.785 619.787C547.45 619.787 640.404 566.072 640.404 499.81C640.404 433.549 547.45 379.833 432.785 379.833C318.119 379.833 225.165 433.549 225.165 499.81C225.165 566.072 318.119 619.787 432.785 619.787Z" fill="url(#paint21_linear_570_5539)"/>
<g opacity="0.05">
<path opacity="0.05" d="M61.9301 499.3L59.7051 498.001L421.405 288.992L423.63 290.291L61.9301 499.3Z" fill="#91A2FA"/>
<path opacity="0.05" d="M68.3036 502.964L66.0786 501.688L427.779 292.68L430.004 293.956L68.3036 502.964Z" fill="#91A2FA"/>
<path opacity="0.05" d="M74.6771 506.654L72.4521 505.378L434.152 296.369L436.377 297.645L74.6771 506.654Z" fill="#91A2FA"/>
<path opacity="0.05" d="M81.0502 510.342L78.8252 509.066L440.525 300.057L442.75 301.333L81.0502 510.342Z" fill="#91A2FA"/>
<path opacity="0.05" d="M87.4257 514.03L85.2007 512.731L446.901 303.722L449.126 305.022L87.4257 514.03Z" fill="#91A2FA"/>
<path opacity="0.05" d="M93.7992 517.695L91.5742 516.419L453.274 307.411L455.499 308.686L93.7992 517.695Z" fill="#91A2FA"/>
<path opacity="0.05" d="M100.171 521.383L97.9458 520.107L459.646 311.099L461.848 312.374L100.171 521.383Z" fill="#91A2FA"/>
<path opacity="0.05" d="M106.546 525.072L104.321 523.796L466.021 314.787L468.223 316.063L106.546 525.072Z" fill="#91A2FA"/>
<path opacity="0.05" d="M112.92 528.761L110.695 527.462L472.395 318.453L474.597 319.729L112.92 528.761Z" fill="#91A2FA"/>
<path opacity="0.05" d="M119.293 532.426L117.068 531.15L478.768 322.141L480.97 323.417L119.293 532.426Z" fill="#91A2FA"/>
<path opacity="0.05" d="M125.643 536.114L123.441 534.838L485.141 325.829L487.343 327.105L125.643 536.114Z" fill="#91A2FA"/>
<path opacity="0.05" d="M132.017 539.802L129.815 538.527L491.515 329.518L493.717 330.794L132.017 539.802Z" fill="#91A2FA"/>
<path opacity="0.05" d="M138.392 543.467L136.19 542.191L497.89 333.182L500.092 334.458L138.392 543.467Z" fill="#91A2FA"/>
<path opacity="0.05" d="M144.766 547.156L142.564 545.88L504.264 336.871L506.466 338.147L144.766 547.156Z" fill="#91A2FA"/>
<path opacity="0.05" d="M151.139 550.844L148.938 549.568L510.638 340.559L512.839 341.835L151.139 550.844Z" fill="#91A2FA"/>
<path opacity="0.05" d="M157.513 554.532L155.288 553.256L516.988 344.225L519.213 345.524L157.513 554.532Z" fill="#91A2FA"/>
<path opacity="0.05" d="M163.888 558.221L161.663 556.922L523.363 347.913L525.588 349.189L163.888 558.221Z" fill="#91A2FA"/>
<path opacity="0.05" d="M170.259 561.887L168.034 560.611L529.734 351.602L531.959 352.878L170.259 561.887Z" fill="#91A2FA"/>
<path opacity="0.05" d="M176.635 565.574L174.41 564.299L536.11 355.29L538.335 356.566L176.635 565.574Z" fill="#91A2FA"/>
<path opacity="0.05" d="M183.008 569.263L180.783 567.964L542.483 358.955L544.708 360.254L183.008 569.263Z" fill="#91A2FA"/>
<path opacity="0.05" d="M189.379 572.928L187.154 571.652L548.854 362.643L551.079 363.919L189.379 572.928Z" fill="#91A2FA"/>
<path opacity="0.05" d="M195.755 576.617L193.53 575.341L555.23 366.332L557.455 367.608L195.755 576.617Z" fill="#91A2FA"/>
<path opacity="0.05" d="M202.128 580.305L199.903 579.029L561.603 370.021L563.828 371.297L202.128 580.305Z" fill="#91A2FA"/>
<path opacity="0.05" d="M208.504 583.993L206.279 582.717L567.979 373.685L570.204 374.984L208.504 583.993Z" fill="#91A2FA"/>
<path opacity="0.05" d="M214.875 587.658L212.65 586.382L574.35 377.373L576.575 378.649L214.875 587.658Z" fill="#91A2FA"/>
<path opacity="0.05" d="M221.249 591.346L219.024 590.07L580.724 381.062L582.926 382.337L221.249 591.346Z" fill="#91A2FA"/>
<path opacity="0.05" d="M227.624 595.034L225.399 593.759L587.1 384.75L589.301 386.026L227.624 595.034Z" fill="#91A2FA"/>
<path opacity="0.05" d="M233.972 598.723L231.771 597.424L593.471 388.415L595.672 389.715L233.972 598.723Z" fill="#91A2FA"/>
<path opacity="0.05" d="M240.348 602.389L238.146 601.113L599.846 392.104L602.048 393.38L240.348 602.389Z" fill="#91A2FA"/>
<path opacity="0.05" d="M246.721 606.077L244.52 604.801L606.22 395.792L608.421 397.068L246.721 606.077Z" fill="#91A2FA"/>
<path opacity="0.05" d="M253.093 609.765L250.891 608.489L612.591 399.48L614.793 400.756L253.093 609.765Z" fill="#91A2FA"/>
<path opacity="0.05" d="M259.468 613.454L257.267 612.155L618.967 403.146L621.168 404.422L259.468 613.454Z" fill="#91A2FA"/>
<path opacity="0.05" d="M265.841 617.119L263.64 615.843L625.317 406.834L627.542 408.11L265.841 617.119Z" fill="#91A2FA"/>
<path opacity="0.05" d="M272.217 620.807L270.016 619.532L631.716 410.523L633.918 411.799L272.217 620.807Z" fill="#91A2FA"/>
<path opacity="0.05" d="M278.589 624.496L276.387 623.22L638.064 414.188L640.289 415.487L278.589 624.496Z" fill="#91A2FA"/>
<path opacity="0.05" d="M284.962 628.184L282.76 626.885L644.437 417.876L646.662 419.175L284.962 628.184Z" fill="#91A2FA"/>
<path opacity="0.05" d="M291.337 631.849L289.112 630.573L650.812 421.564L653.037 422.84L291.337 631.849Z" fill="#91A2FA"/>
<path opacity="0.05" d="M297.713 635.538L295.488 634.262L657.188 425.254L659.413 426.53L297.713 635.538Z" fill="#91A2FA"/>
<path opacity="0.05" d="M304.084 639.226L301.859 637.95L663.559 428.918L665.784 430.217L304.084 639.226Z" fill="#91A2FA"/>
<path opacity="0.05" d="M310.457 642.915L308.232 641.616L669.933 432.607L672.158 433.906L310.457 642.915Z" fill="#91A2FA"/>
<path opacity="0.05" d="M316.829 646.579L314.604 645.303L676.304 436.295L678.529 437.571L316.829 646.579Z" fill="#91A2FA"/>
<path opacity="0.05" d="M323.209 650.267L320.984 648.992L682.684 439.983L684.909 441.259L323.209 650.267Z" fill="#91A2FA"/>
<path opacity="0.05" d="M329.58 653.957L327.355 652.681L689.055 443.672L691.28 444.948L329.58 653.957Z" fill="#91A2FA"/>
<path opacity="0.05" d="M335.954 657.645L333.729 656.346L695.429 447.338L697.654 448.614L335.954 657.645Z" fill="#91A2FA"/>
<path opacity="0.05" d="M342.325 661.31L340.1 660.034L701.8 451.026L704.025 452.302L342.325 661.31Z" fill="#91A2FA"/>
<path opacity="0.05" d="M348.7 664.998L346.475 663.722L708.175 454.714L710.4 455.99L348.7 664.998Z" fill="#91A2FA"/>
<path opacity="0.05" d="M355.074 668.687L352.849 667.411L714.549 458.379L716.774 459.678L355.074 668.687Z" fill="#91A2FA"/>
<path opacity="0.05" d="M361.449 672.352L359.224 671.076L720.924 462.067L723.126 463.343L361.449 672.352Z" fill="#91A2FA"/>
<path opacity="0.05" d="M367.821 676.041L365.596 674.765L727.296 465.757L729.498 467.032L367.821 676.041Z" fill="#91A2FA"/>
<path opacity="0.05" d="M374.171 679.729L371.969 678.453L733.669 469.445L735.871 470.72L374.171 679.729Z" fill="#91A2FA"/>
<path opacity="0.05" d="M380.542 683.417L378.34 682.142L740.04 473.11L742.242 474.409L380.542 683.417Z" fill="#91A2FA"/>
<path opacity="0.05" d="M386.922 687.082L384.72 685.806L746.42 476.798L748.622 478.074L386.922 687.082Z" fill="#91A2FA"/>
<path opacity="0.05" d="M393.293 690.77L391.091 689.494L752.791 480.486L754.993 481.762L393.293 690.77Z" fill="#91A2FA"/>
<path opacity="0.05" d="M399.667 694.46L397.465 693.184L759.165 484.175L761.367 485.451L399.667 694.46Z" fill="#91A2FA"/>
<path opacity="0.05" d="M406.038 698.148L403.813 696.849L765.513 487.841L767.738 489.14L406.038 698.148Z" fill="#91A2FA"/>
<path opacity="0.05" d="M412.412 701.813L410.187 700.537L771.887 491.529L774.112 492.804L412.412 701.813Z" fill="#91A2FA"/>
<path opacity="0.05" d="M418.787 705.501L416.562 704.225L778.262 495.217L780.487 496.493L418.787 705.501Z" fill="#91A2FA"/>
<path opacity="0.05" d="M425.158 709.19L422.933 707.914L784.633 498.905L786.858 500.181L425.158 709.19Z" fill="#91A2FA"/>
<path opacity="0.05" d="M431.534 712.877L429.309 711.578L791.009 502.569L793.234 503.868L431.534 712.877Z" fill="#91A2FA"/>
<path opacity="0.05" d="M437.907 716.544L435.682 715.268L797.382 506.259L799.607 507.535L437.907 716.544Z" fill="#91A2FA"/>
<path opacity="0.05" d="M444.281 720.232L442.056 718.956L803.756 509.947L805.981 511.223L444.281 720.232Z" fill="#91A2FA"/>
</g>
</g>
<path d="M285.981 423.05C367.1 376.215 498.514 376.215 579.61 423.05C618.362 445.459 638.572 474.502 640.287 503.847C642.142 471.811 621.931 439.428 579.61 414.978C498.491 368.119 367.054 368.119 285.981 414.978C243.66 439.428 223.403 471.811 225.303 503.847C227.019 474.502 247.298 445.436 285.981 423.05Z" fill="url(#paint22_linear_570_5539)"/>
<path d="M496.961 474.408C484.598 473.312 472.16 475.396 460.828 480.463C474.735 468.864 471.528 457.01 451.21 444.901L449.703 444.02C443.114 440.091 436.039 437.041 428.659 434.95C421.675 432.912 414.448 431.828 407.174 431.725C400.229 431.77 393.316 432.674 386.592 434.416C382.838 435.375 379.253 436.442 375.838 437.617L362.767 430.055L343.53 441.167L354.284 447.407C352.383 448.427 350.46 449.494 348.489 450.631L341.536 454.714L330.875 448.543L311.638 459.655L322.299 465.825L309.019 473.504L303.827 476.519L302.414 477.308L280.349 490.067L299.586 501.201L321.651 488.443L460.295 568.613L438.208 581.372L457.444 592.483L479.532 579.725L486.138 575.92L499.418 568.242L510.265 574.505L529.502 563.394L522.549 559.427L518.585 557.107L531.356 549.73L542.203 555.994L561.44 544.882L554.487 540.915L548.97 537.714C556.549 531.103 560.559 524.422 561.069 517.695C561.625 507.643 553.281 497.59 536.038 487.538L534.879 486.842C523.274 480.03 510.344 475.79 496.961 474.408ZM367.819 469.908L374.007 466.313C389.335 457.467 404.014 457.08 418.044 465.153C426.248 469.792 430.698 474.223 431.463 478.143C432.228 482.064 428.381 486.471 419.875 491.343L412.388 495.657L367.819 469.908ZM491.399 541.31L438.161 510.62L445.856 506.166C453.171 501.527 461.672 499.11 470.331 499.206C477.964 499.578 486.771 502.671 496.753 508.485C505.653 513.635 510.458 518.391 511.169 522.752C511.887 527.113 507.993 531.752 499.58 536.67L491.399 541.31Z" fill="url(#paint23_linear_570_5539)"/>
<path d="M311.521 444.043V456.384L322.183 450.214L311.521 444.043Z" fill="url(#paint24_linear_570_5539)"/>
<path d="M343.526 425.555V437.896L354.28 431.795L343.526 425.555Z" fill="url(#paint25_linear_570_5539)"/>
<path d="M469.335 450.236V464.897L459.693 458.982L469.335 450.236Z" fill="url(#paint26_linear_570_5539)"/>
<path d="M561.186 499.81V517.719L546.724 508.764L561.186 499.81Z" fill="url(#paint27_linear_570_5539)"/>
<path d="M496.961 458.797C484.598 457.701 472.16 459.785 460.828 464.852C474.735 453.253 471.528 441.392 451.21 429.267L449.703 428.409C443.114 424.479 436.039 421.43 428.659 419.339C421.677 417.29 414.449 416.205 407.174 416.114C400.229 416.159 393.316 417.063 386.592 418.805C382.838 419.748 379.253 420.816 375.838 422.006L362.767 414.444L343.53 425.556L354.284 431.796C352.383 432.816 350.46 433.883 348.489 435.02L341.536 439.103L330.875 432.932L311.638 444.044L322.299 450.214L309.019 457.893L303.827 460.885L302.414 461.697L280.349 474.456L299.586 485.59L321.651 472.832L460.411 553.002L438.323 565.761L457.56 576.872L479.648 564.114L486.254 560.309L499.534 552.631L510.381 558.894L529.618 547.783L522.665 543.816L518.701 541.496L531.472 534.119L542.319 540.383L561.556 529.271L554.602 525.304L549.086 522.103C556.665 515.492 560.675 508.811 561.185 502.084C561.741 492.032 553.397 481.979 536.154 471.927L534.995 471.254C523.362 464.408 510.388 460.159 496.961 458.797ZM367.819 454.297L374.007 450.702C389.335 441.856 404.014 441.469 418.044 449.542C426.248 454.181 430.698 458.612 431.463 462.532C432.228 466.453 428.381 470.86 419.875 475.731L412.388 480.046L367.819 454.297ZM491.399 525.699L438.254 495.009L445.949 490.555C453.264 485.916 461.765 483.499 470.424 483.595C478.057 483.967 486.864 487.06 496.845 492.874C505.745 498.024 510.551 502.78 511.261 507.141C511.98 511.502 508.086 516.141 499.673 521.059L491.399 525.699Z" fill="url(#paint28_linear_570_5539)"/>
<path d="M561.506 529.294V544.905L542.27 556.017V540.405L561.506 529.294Z" fill="url(#paint29_linear_570_5539)"/>
<path d="M529.502 547.782V563.394L510.265 574.506V558.894L529.502 547.782Z" fill="url(#paint30_linear_570_5539)"/>
<path d="M457.464 576.872V592.484L438.204 581.372V565.76L457.464 576.872Z" fill="url(#paint31_linear_570_5539)"/>
<path d="M280.232 474.455V490.09L299.469 501.201V485.589L280.232 474.455Z" fill="url(#paint32_linear_570_5539)"/>
<path d="M321.532 488.444V472.832L299.467 485.59V501.202L321.532 488.444Z" fill="url(#paint33_linear_570_5539)"/>
<path d="M321.533 472.832V488.444L446.781 560.819L460.293 553.002L321.533 472.832Z" fill="url(#paint34_linear_570_5539)"/>
<path d="M435.657 386.908C427.472 387.078 419.381 385.145 412.155 381.294C405.619 377.536 402.027 372.433 402.027 366.958C402.027 361.484 405.619 356.403 412.155 352.622C425.111 345.153 446.202 345.153 459.181 352.622C465.694 356.403 469.286 361.507 469.286 366.958C469.286 372.41 465.694 377.536 459.181 381.294C451.947 385.145 443.849 387.078 435.657 386.908ZM435.657 349.56C427.918 349.418 420.27 351.246 413.43 354.872C407.752 358.166 404.623 362.458 404.623 366.958C404.623 371.458 407.752 375.773 413.453 379.067C425.691 386.142 445.623 386.142 457.883 379.067C463.562 375.773 466.714 371.482 466.714 366.958C466.714 362.435 463.562 358.166 457.883 354.872C451.045 351.243 443.396 349.415 435.657 349.56Z" fill="#91A2FA"/>
<path d="M449.586 375.008C445.278 377.2 440.513 378.343 435.68 378.343C430.847 378.343 426.082 377.2 421.774 375.008C414.079 370.577 414.079 363.409 421.774 358.932C426.082 356.74 430.847 355.598 435.68 355.598C440.513 355.598 445.278 356.74 449.586 358.932C457.257 363.363 457.257 370.577 449.586 375.008Z" fill="#97A6FC"/>
<path d="M516.845 328.01L503.055 320.053L526.533 306.482L540.346 314.439L516.845 328.01Z" fill="#91A2FA"/>
<path opacity="0.8" d="M492.045 315.437L474.662 310.311L489.75 293.214L507.133 298.341L492.045 315.437Z" fill="#91A2FA"/>
<path opacity="0.6" d="M461.733 307.875L442.473 306.112L447.665 287.16L466.925 288.923L461.733 307.875Z" fill="#91A2FA"/>
<path opacity="0.4" d="M428.864 306.112L409.581 307.875L404.389 288.923L423.649 287.16L428.864 306.112Z" fill="#91A2FA"/>
<path opacity="0.2" d="M396.649 310.311L379.267 315.437L364.202 298.318L381.561 293.214L396.649 310.311Z" fill="#91A2FA"/>
<path opacity="0.1" d="M368.258 320.053L354.468 328.01L330.989 314.439L344.78 306.482L368.258 320.053Z" fill="#91A2FA"/>
<path opacity="0.2" d="M470.819 349.467L465.975 346.66L501.019 326.409L505.863 329.216L470.819 349.467Z" fill="#91A2FA"/>
<path opacity="0.4" d="M459.716 344.039L453.62 342.23L476.125 316.713L482.221 318.522L459.716 344.039Z" fill="#91A2FA"/>
<path opacity="0.6" d="M446.296 340.861L439.528 340.235L447.269 311.957L454.037 312.584L446.296 340.861Z" fill="#91A2FA"/>
<path opacity="0.8" d="M431.812 340.235L425.045 340.861L417.28 312.584L424.048 311.957L431.812 340.235Z" fill="#91A2FA"/>
<path d="M417.696 342.23L411.601 344.039L389.096 318.522L395.214 316.713L417.696 342.23Z" fill="#91A2FA"/>
<path d="M405.365 346.66L400.521 349.467L365.477 329.216L370.321 326.409L405.365 346.66Z" fill="#91A2FA"/>
<path d="M395.98 353.063L392.874 356.589L348.722 343.575L351.827 340.049L395.98 353.063Z" fill="#91A2FA"/>
<path d="M390.482 360.834L389.416 364.731L340.466 360.254L341.532 356.333L390.482 360.834Z" fill="#91A2FA"/>
<path d="M389.416 369.185L390.482 373.106L341.532 377.583L340.466 373.662L389.416 369.185Z" fill="#91A2FA"/>
<path d="M392.874 377.35L395.98 380.876L351.827 393.867L348.722 390.341L392.874 377.35Z" fill="#91A2FA"/>
<path d="M400.521 384.473L405.365 387.279L370.321 407.531L365.477 404.724L400.521 384.473Z" fill="#91A2FA"/>
<path opacity="0.6" d="M573.304 301.216C624.827 337.126 627.701 388.462 581.996 426.134L600.537 443.231C663.602 397.81 662.211 332.417 596.435 287.808L573.304 301.216Z" fill="#97A6FC"/>
<path opacity="0.2" d="M463.54 468.912C409.051 473.853 351.34 464.272 309.367 439.961C300.202 434.749 291.65 428.524 283.872 421.403L252.421 427.667C262.539 437.624 273.924 446.204 286.282 453.184C339.381 483.851 413.756 494.753 481.943 485.915L463.54 468.912Z" fill="#91A2FA"/>
<path d="M226.648 384.287L258.099 378.024C252.536 348.053 269.687 316.945 309.366 293.979C375.096 256.005 479.277 253.825 549.457 287.415L572.518 274.099C489.567 233.179 364.782 235.36 286.351 280.687C237.471 308.919 217.585 347.565 226.648 384.287Z" fill="#97A6FC"/>
<path d="M416.398 435.206L404.091 428.107L562.112 336.779L574.419 343.877L416.398 435.206Z" fill="#97A6FC"/>
<path opacity="0.8" d="M433.871 445.319L421.564 438.197L490.261 398.507L502.568 405.628L433.871 445.319Z" fill="#97A6FC"/>
<path opacity="0.6" d="M452.577 456.129L440.27 449.008L549.619 385.841L561.926 392.939L452.577 456.129Z" fill="#97A6FC"/>
<path opacity="0.2" d="M471.002 466.754L458.671 459.655L543.8 410.477L556.107 417.575L471.002 466.754Z" fill="#97A6FC"/>
<defs>
<linearGradient id="paint0_linear_570_5539" x1="767.096" y1="791.224" x2="885.479" y2="859.536" gradientUnits="userSpaceOnUse">
<stop stop-color="#BCBEFF"/>
<stop offset="0.23" stop-color="#AAADF8"/>
<stop offset="0.68" stop-color="#7C83E5"/>
<stop offset="1" stop-color="#5761D7"/>
</linearGradient>
<linearGradient id="paint1_linear_570_5539" x1="752.247" y1="817.077" x2="901.401" y2="817.077" gradientUnits="userSpaceOnUse">
<stop stop-color="#E9E9FD"/>
<stop offset="0.36" stop-color="#D3D2F9"/>
<stop offset="0.71" stop-color="#C5C4F7"/>
<stop offset="1" stop-color="#C0BFF6"/>
</linearGradient>
<linearGradient id="paint2_linear_570_5539" x1="78150" y1="14222" x2="80763.9" y2="18016.7" gradientUnits="userSpaceOnUse">
<stop stop-color="#BCBEFF"/>
<stop offset="0.23" stop-color="#AAADF8"/>
<stop offset="0.68" stop-color="#7C83E5"/>
<stop offset="1" stop-color="#5761D7"/>
</linearGradient>
<linearGradient id="paint3_linear_570_5539" x1="77339.4" y1="21008.8" x2="85010.8" y2="21008.8" gradientUnits="userSpaceOnUse">
<stop stop-color="#E9E9FD"/>
<stop offset="0.36" stop-color="#D3D2F9"/>
<stop offset="0.71" stop-color="#C5C4F7"/>
<stop offset="1" stop-color="#C0BFF6"/>
</linearGradient>
<linearGradient id="paint4_linear_570_5539" x1="544.719" y1="676.841" x2="798.591" y2="676.841" gradientUnits="userSpaceOnUse">
<stop stop-color="#5778FF"/>
<stop offset="0.1042" stop-color="#567FFF"/>
<stop offset="0.2607" stop-color="#5394FF"/>
<stop offset="0.4503" stop-color="#4DB6FF"/>
<stop offset="0.6638" stop-color="#46E4FF"/>
<stop offset="0.7742" stop-color="#42FFFF"/>
</linearGradient>
<linearGradient id="paint5_linear_570_5539" x1="64254" y1="17673.9" x2="66867.9" y2="21468.7" gradientUnits="userSpaceOnUse">
<stop stop-color="#BCBEFF"/>
<stop offset="0.23" stop-color="#AAADF8"/>
<stop offset="0.68" stop-color="#7C83E5"/>
<stop offset="1" stop-color="#5761D7"/>
</linearGradient>
<linearGradient id="paint6_linear_570_5539" x1="63480.5" y1="26029.7" x2="71157.1" y2="26029.7" gradientUnits="userSpaceOnUse">
<stop stop-color="#E9E9FD"/>
<stop offset="0.36" stop-color="#D3D2F9"/>
<stop offset="0.71" stop-color="#C5C4F7"/>
<stop offset="1" stop-color="#C0BFF6"/>
</linearGradient>
<linearGradient id="paint7_linear_570_5539" x1="64254" y1="15660.5" x2="66867.1" y2="19454.4" gradientUnits="userSpaceOnUse">
<stop stop-color="#BCBEFF"/>
<stop offset="0.23" stop-color="#AAADF8"/>
<stop offset="0.68" stop-color="#7C83E5"/>
<stop offset="1" stop-color="#5761D7"/>
</linearGradient>
<linearGradient id="paint8_linear_570_5539" x1="63480.5" y1="23140.4" x2="71157.1" y2="23140.4" gradientUnits="userSpaceOnUse">
<stop stop-color="#E9E9FD"/>
<stop offset="0.36" stop-color="#D3D2F9"/>
<stop offset="0.71" stop-color="#C5C4F7"/>
<stop offset="1" stop-color="#C0BFF6"/>
</linearGradient>
<linearGradient id="paint9_linear_570_5539" x1="334.674" y1="701.051" x2="80.8066" y2="702.549" gradientUnits="userSpaceOnUse">
<stop stop-color="#5778FF"/>
<stop offset="0.1042" stop-color="#567FFF"/>
<stop offset="0.2607" stop-color="#5394FF"/>
<stop offset="0.4503" stop-color="#4DB6FF"/>
<stop offset="0.6638" stop-color="#46E4FF"/>
<stop offset="0.7742" stop-color="#42FFFF"/>
</linearGradient>
<linearGradient id="paint10_linear_570_5539" x1="39717.9" y1="7704.34" x2="42331.9" y2="11495.8" gradientUnits="userSpaceOnUse">
<stop stop-color="#BCBEFF"/>
<stop offset="0.23" stop-color="#AAADF8"/>
<stop offset="0.68" stop-color="#7C83E5"/>
<stop offset="1" stop-color="#5761D7"/>
</linearGradient>
<linearGradient id="paint11_linear_570_5539" x1="38917.4" y1="11792.3" x2="46580.2" y2="11792.3" gradientUnits="userSpaceOnUse">
<stop stop-color="#E9E9FD"/>
<stop offset="0.36" stop-color="#D3D2F9"/>
<stop offset="0.71" stop-color="#C5C4F7"/>
<stop offset="1" stop-color="#C0BFF6"/>
</linearGradient>
<linearGradient id="paint12_linear_570_5539" x1="39717.9" y1="5892.75" x2="42339.3" y2="9687.05" gradientUnits="userSpaceOnUse">
<stop stop-color="#BCBEFF"/>
<stop offset="0.23" stop-color="#AAADF8"/>
<stop offset="0.68" stop-color="#7C83E5"/>
<stop offset="1" stop-color="#5761D7"/>
</linearGradient>
<linearGradient id="paint13_linear_570_5539" x1="772.696" y1="174.41" x2="878.232" y2="235.283" gradientUnits="userSpaceOnUse">
<stop offset="0.24" stop-color="#5761D7"/>
<stop offset="0.39" stop-color="#7A82E5"/>
<stop offset="0.55" stop-color="#979CF0"/>
<stop offset="0.7" stop-color="#ACAFF8"/>
<stop offset="0.85" stop-color="#B8BAFD"/>
<stop offset="1" stop-color="#BCBEFF"/>
</linearGradient>
<linearGradient id="paint14_linear_570_5539" x1="38954.6" y1="9180.25" x2="46624.8" y2="9180.25" gradientUnits="userSpaceOnUse">
<stop stop-color="#E9E9FD"/>
<stop offset="0.36" stop-color="#D3D2F9"/>
<stop offset="0.71" stop-color="#C5C4F7"/>
<stop offset="1" stop-color="#C0BFF6"/>
</linearGradient>
<linearGradient id="paint15_linear_570_5539" x1="37882.6" y1="8901.47" x2="45086" y2="8901.47" gradientUnits="userSpaceOnUse">
<stop stop-color="#E9E9FD"/>
<stop offset="0.36" stop-color="#D3D2F9"/>
<stop offset="0.71" stop-color="#C5C4F7"/>
<stop offset="1" stop-color="#C0BFF6"/>
</linearGradient>
<linearGradient id="paint16_linear_570_5539" x1="614.692" y1="464.928" x2="741.628" y2="245.069" gradientUnits="userSpaceOnUse">
<stop stop-color="#5778FF"/>
<stop offset="0.1042" stop-color="#567FFF"/>
<stop offset="0.2607" stop-color="#5394FF"/>
<stop offset="0.4503" stop-color="#4DB6FF"/>
<stop offset="0.6638" stop-color="#46E4FF"/>
<stop offset="0.7742" stop-color="#42FFFF"/>
</linearGradient>
<linearGradient id="paint17_linear_570_5539" x1="149125" y1="-24176" x2="177427" y2="21775" gradientUnits="userSpaceOnUse">
<stop stop-color="#35068C"/>
<stop offset="0.02" stop-color="#40DDDA"/>
<stop offset="0.09" stop-color="#3AAEC0"/>
<stop offset="0.17" stop-color="#3484A9"/>
<stop offset="0.26" stop-color="#2F6195"/>
<stop offset="0.35" stop-color="#2B4486"/>
<stop offset="0.44" stop-color="#282E79"/>
<stop offset="0.54" stop-color="#261E71"/>
<stop offset="0.66" stop-color="#24156C"/>
<stop offset="0.82" stop-color="#24126A"/>
</linearGradient>
<linearGradient id="paint18_linear_570_5539" x1="162.956" y1="541.311" x2="627.191" y2="541.311" gradientUnits="userSpaceOnUse">
<stop stop-color="#3671E9"/>
<stop offset="0.15" stop-color="#91A2FA"/>
<stop offset="0.33" stop-color="#8B97F1"/>
<stop offset="0.52" stop-color="#7366C8"/>
<stop offset="0.72" stop-color="#654CB3"/>
<stop offset="0.93" stop-color="#4127A7"/>
<stop offset="1" stop-color="#260672"/>
</linearGradient>
<linearGradient id="paint19_linear_570_5539" x1="33077.6" y1="67334.1" x2="126594" y2="67334.1" gradientUnits="userSpaceOnUse">
<stop stop-color="#42E8E0"/>
<stop offset="0.15" stop-color="#43E3E0"/>
<stop offset="0.33" stop-color="#45D5DF"/>
<stop offset="0.52" stop-color="#49BDDD"/>
<stop offset="0.72" stop-color="#4E9CDB"/>
<stop offset="0.93" stop-color="#5472D8"/>
<stop offset="1" stop-color="#5761D7"/>
</linearGradient>
<linearGradient id="paint20_linear_570_5539" x1="153207" y1="-33197" x2="181510" y2="12754.1" gradientUnits="userSpaceOnUse">
<stop stop-color="#654CB2"/>
<stop offset="0.02" stop-color="#40DDDA"/>
<stop offset="0.09" stop-color="#3AAEC0"/>
<stop offset="0.17" stop-color="#3484A9"/>
<stop offset="0.26" stop-color="#2F6195"/>
<stop offset="0.35" stop-color="#2B4486"/>
<stop offset="0.44" stop-color="#282E79"/>
<stop offset="0.54" stop-color="#261E71"/>
<stop offset="0.66" stop-color="#24156C"/>
<stop offset="0.82" stop-color="#24126A"/>
</linearGradient>
<linearGradient id="paint21_linear_570_5539" x1="396.188" y1="316.759" x2="512.385" y2="896.91" gradientUnits="userSpaceOnUse">
<stop stop-color="#42E8E0"/>
<stop offset="0.02" stop-color="#40DDDA"/>
<stop offset="0.09" stop-color="#3AAEC0"/>
<stop offset="0.17" stop-color="#3484A9"/>
<stop offset="0.26" stop-color="#2F6195"/>
<stop offset="0.35" stop-color="#2B4486"/>
<stop offset="0.44" stop-color="#282E79"/>
<stop offset="0.54" stop-color="#261E71"/>
<stop offset="0.66" stop-color="#24156C"/>
<stop offset="0.82" stop-color="#24126A"/>
</linearGradient>
<linearGradient id="paint22_linear_570_5539" x1="225.188" y1="441.84" x2="640.403" y2="441.84" gradientUnits="userSpaceOnUse">
<stop stop-color="#2B237C"/>
<stop offset="1" stop-color="#180D5B"/>
</linearGradient>
<linearGradient id="paint23_linear_570_5539" x1="29853.9" y1="42398.3" x2="63967" y2="42398.3" gradientUnits="userSpaceOnUse">
<stop stop-color="#2B237C"/>
<stop offset="1" stop-color="#180D5B"/>
</linearGradient>
<linearGradient id="paint24_linear_570_5539" x1="1598.46" y1="3261.62" x2="1604.6" y2="3350.74" gradientUnits="userSpaceOnUse">
<stop stop-color="#2B237D"/>
<stop offset="0.02" stop-color="#40DDDA"/>
<stop offset="0.09" stop-color="#3AAEC0"/>
<stop offset="0.17" stop-color="#3484A9"/>
<stop offset="0.26" stop-color="#2F6195"/>
<stop offset="0.35" stop-color="#2B4486"/>
<stop offset="0.44" stop-color="#282E79"/>
<stop offset="0.54" stop-color="#261E71"/>
<stop offset="0.66" stop-color="#24156C"/>
<stop offset="0.82" stop-color="#24126A"/>
</linearGradient>
<linearGradient id="paint25_linear_570_5539" x1="1790.39" y1="3144.78" x2="1796.33" y2="3233.91" gradientUnits="userSpaceOnUse">
<stop stop-color="#2C247E"/>
<stop offset="0.02" stop-color="#40DDDA"/>
<stop offset="0.09" stop-color="#3AAEC0"/>
<stop offset="0.17" stop-color="#3484A9"/>
<stop offset="0.26" stop-color="#2F6195"/>
<stop offset="0.35" stop-color="#2B4486"/>
<stop offset="0.44" stop-color="#282E79"/>
<stop offset="0.54" stop-color="#261E71"/>
<stop offset="0.66" stop-color="#24156C"/>
<stop offset="0.82" stop-color="#24126A"/>
</linearGradient>
<linearGradient id="paint26_linear_570_5539" x1="2239.06" y1="3837.45" x2="2250.37" y2="3963.11" gradientUnits="userSpaceOnUse">
<stop stop-color="#2B237C"/>
<stop offset="1" stop-color="#180D5B"/>
</linearGradient>
<linearGradient id="paint27_linear_570_5539" x1="3736.55" y1="5085.61" x2="3861.61" y2="5106.83" gradientUnits="userSpaceOnUse">
<stop stop-color="#2B237C"/>
<stop offset="1" stop-color="#180D5B"/>
</linearGradient>
<linearGradient id="paint28_linear_570_5539" x1="31317.1" y1="39238" x2="135444" y2="77016.8" gradientUnits="userSpaceOnUse">
<stop stop-color="#654DB3"/>
<stop offset="0.0899" stop-color="#40DDDA"/>
<stop offset="0.09" stop-color="#E9E9FE"/>
<stop offset="0.17" stop-color="#654DB3"/>
<stop offset="0.26" stop-color="#2F6195"/>
<stop offset="0.35" stop-color="#2B4486"/>
<stop offset="0.44" stop-color="#282E79"/>
<stop offset="0.54" stop-color="#261E71"/>
<stop offset="0.66" stop-color="#24156C"/>
<stop offset="0.82" stop-color="#24126A"/>
</linearGradient>
<linearGradient id="paint29_linear_570_5539" x1="4743.03" y1="7772.95" x2="4949.99" y2="7804.19" gradientUnits="userSpaceOnUse">
<stop stop-color="#2B237C"/>
<stop offset="1" stop-color="#180D5B"/>
</linearGradient>
<linearGradient id="paint30_linear_570_5539" x1="4445.55" y1="8004.43" x2="4652.51" y2="8035.66" gradientUnits="userSpaceOnUse">
<stop stop-color="#2B237C"/>
<stop offset="1" stop-color="#180D5B"/>
</linearGradient>
<linearGradient id="paint31_linear_570_5539" x1="3761.53" y1="8224.43" x2="4016.49" y2="8262.97" gradientUnits="userSpaceOnUse">
<stop stop-color="#2B237C"/>
<stop offset="1" stop-color="#180D5B"/>
</linearGradient>
<linearGradient id="paint32_linear_570_5539" x1="2374.55" y1="6896.04" x2="2410.51" y2="7331.92" gradientUnits="userSpaceOnUse">
<stop stop-color="#2C247D"/>
<stop offset="0.02" stop-color="#40DDDA"/>
<stop offset="0.09" stop-color="#3AAEC0"/>
<stop offset="0.17" stop-color="#3484A9"/>
<stop offset="0.26" stop-color="#2F6195"/>
<stop offset="0.35" stop-color="#2B4486"/>
<stop offset="0.44" stop-color="#282E79"/>
<stop offset="0.54" stop-color="#261E71"/>
<stop offset="0.66" stop-color="#24156C"/>
<stop offset="0.82" stop-color="#24126A"/>
</linearGradient>
<linearGradient id="paint33_linear_570_5539" x1="2898.66" y1="7280.88" x2="2932.88" y2="7730.37" gradientUnits="userSpaceOnUse">
<stop stop-color="#2B237C"/>
<stop offset="1" stop-color="#180D5B"/>
</linearGradient>
<linearGradient id="paint34_linear_570_5539" x1="21302.1" y1="20936.1" x2="21487.2" y2="25872" gradientUnits="userSpaceOnUse">
<stop stop-color="#91A2FA"/>
<stop offset="0.0199" stop-color="#91A2FA"/>
<stop offset="0.02" stop-color="#654DB3"/>
<stop offset="0.09" stop-color="#654DB3"/>
<stop offset="0.17" stop-color="#654DB3"/>
<stop offset="0.26" stop-color="#654CB3"/>
<stop offset="0.35" stop-color="#35068C"/>
<stop offset="0.44" stop-color="#35068C"/>
<stop offset="0.54" stop-color="#35068C"/>
<stop offset="0.66" stop-color="#35068C"/>
<stop offset="0.82" stop-color="#35068C"/>
</linearGradient>
</defs>
</svg>
